<svg xmlns="http://www.w3.org/2000/svg" xml:space="preserve" width="22.5778mm" height="30.5153mm" version="1.1" style="shape-rendering:geometricPrecision; text-rendering:geometricPrecision; image-rendering:optimizeQuality; fill-rule:evenodd; clip-rule:evenodd"
viewBox="0 0 227 307">
 <defs>
  <style type="text/css">
   <![CDATA[
    .str1 {stroke:#8A8A8A;stroke-width:3.01861;stroke-linecap:round;stroke-linejoin:round}
    .str0 {stroke:white;stroke-width:3.01861;stroke-linecap:round;stroke-linejoin:round}
    .fil3 {fill:none}
    .fil1 {fill:#8A8A8A}
    .fil5 {fill:#8A8A8A}
    .fil0 {fill:#BABABA}
    .fil4 {fill:#BABABA}
    .fil2 {fill:#E7E7E7}
   ]]>
  </style>
 </defs>
 <g id="Camada_x0020_1">
  <g id="_428044464">
   <rect class="fil0" width="227" height="307" rx="11" ry="11"/>
   <g>
    <rect class="fil1" x="106" y="26" width="102" height="255" rx="5" ry="9"/>
    <rect class="fil2" x="123" y="40" width="68.4128" height="92.4642" rx="3" ry="3"/>
    <g>
     <line class="fil3 str0" x1="189" y1="226" x2="189" y2= "260" />
     <line class="fil3 str0" x1="183" y1="226" x2="183" y2= "260" />
     <line class="fil3 str0" x1="176" y1="226" x2="176" y2= "260" />
     <line class="fil3 str0" x1="170" y1="226" x2="170" y2= "260" />
     <line class="fil3 str0" x1="163" y1="226" x2="163" y2= "260" />
     <line class="fil3 str0" x1="157" y1="226" x2="157" y2= "260" />
     <line class="fil3 str0" x1="150" y1="226" x2="150" y2= "260" />
     <line class="fil3 str0" x1="144" y1="226" x2="144" y2= "260" />
     <line class="fil3 str0" x1="138" y1="226" x2="138" y2= "260" />
     <line class="fil3 str0" x1="131" y1="226" x2="131" y2= "260" />
     <line class="fil3 str0" x1="125" y1="226" x2="125" y2= "260" />
    </g>
    <rect class="fil4" x="146" y="142" width="22.1868" height="22.1868" rx="4" ry="4"/>
    <rect class="fil4" x="128" y="150" width="7.16216" height="7.16216" rx="1" ry="1"/>
    <rect class="fil4" x="178" y="150" width="7.16216" height="7.16216" rx="1" ry="1"/>
    <rect class="fil4" x="146" y="170" width="22.1868" height="6.43367" rx="4" ry="1"/>
    <rect class="fil4" x="128" y="169" width="7.16216" height="7.16216" rx="1" ry="1"/>
    <rect class="fil4" x="178" y="169" width="7.16216" height="7.16216" rx="1" ry="1"/>
    <rect class="fil5" x="155" y="152" width="3.94029" height="3.94029" rx="1" ry="1"/>
    <g>
     <g>
      <line class="fil3 str1" x1="86" y1="52" x2="86" y2= "121" />
      <line class="fil3 str1" x1="80" y1="52" x2="80" y2= "121" />
      <line class="fil3 str1" x1="73" y1="52" x2="73" y2= "121" />
      <line class="fil3 str1" x1="67" y1="52" x2="67" y2= "121" />
      <line class="fil3 str1" x1="61" y1="52" x2="61" y2= "121" />
      <line class="fil3 str1" x1="54" y1="52" x2="54" y2= "121" />
      <line class="fil3 str1" x1="48" y1="52" x2="48" y2= "121" />
      <line class="fil3 str1" x1="41" y1="52" x2="41" y2= "121" />
      <line class="fil3 str1" x1="35" y1="52" x2="35" y2= "121" />
      <line class="fil3 str1" x1="28" y1="52" x2="28" y2= "121" />
      <line class="fil3 str1" x1="22" y1="52" x2="22" y2= "121" />
     </g>
     <g>
      <line class="fil3 str1" x1="86" y1="138" x2="86" y2= "162" />
      <line class="fil3 str1" x1="80" y1="138" x2="80" y2= "162" />
      <line class="fil3 str1" x1="73" y1="138" x2="73" y2= "162" />
      <line class="fil3 str1" x1="67" y1="138" x2="67" y2= "162" />
      <line class="fil3 str1" x1="61" y1="138" x2="61" y2= "162" />
      <line class="fil3 str1" x1="54" y1="138" x2="54" y2= "162" />
      <line class="fil3 str1" x1="48" y1="138" x2="48" y2= "162" />
      <line class="fil3 str1" x1="41" y1="138" x2="41" y2= "162" />
      <line class="fil3 str1" x1="35" y1="138" x2="35" y2= "162" />
      <line class="fil3 str1" x1="28" y1="138" x2="28" y2= "162" />
      <line class="fil3 str1" x1="22" y1="138" x2="22" y2= "162" />
     </g>
     <g>
      <line class="fil3 str1" x1="89" y1="255" x2="19" y2= "255" />
      <line class="fil3 str1" x1="89" y1="249" x2="19" y2= "249" />
      <line class="fil3 str1" x1="89" y1="243" x2="19" y2= "243" />
      <line class="fil3 str1" x1="89" y1="236" x2="19" y2= "236" />
      <line class="fil3 str1" x1="89" y1="230" x2="19" y2= "230" />
      <line class="fil3 str1" x1="89" y1="223" x2="19" y2= "223" />
      <line class="fil3 str1" x1="89" y1="217" x2="19" y2= "217" />
      <line class="fil3 str1" x1="89" y1="210" x2="19" y2= "210" />
      <line class="fil3 str1" x1="89" y1="204" x2="19" y2= "204" />
      <line class="fil3 str1" x1="89" y1="197" x2="19" y2= "197" />
      <line class="fil3 str1" x1="89" y1="191" x2="19" y2= "191" />
     </g>
    </g>
   </g>
  </g>
 </g>
</svg>
